<svg id="svg" version="1.1" xmlns="http://www.w3.org/2000/svg" xmlns:xlink="http://www.w3.org/1999/xlink" width="400" height="200" viewBox="0, 0, 400,200"><g id="svgg"><path id="path0" d="M297.327 28.615 C 297.037 28.842,296.799 29.135,296.799 29.265 C 296.798 29.394,296.671 29.743,296.515 30.041 C 295.387 32.203,294.939 36.603,295.579 39.227 C 295.810 40.177,296.000 41.057,296.000 41.181 C 296.000 41.494,297.585 44.742,298.156 45.600 C 299.484 47.597,303.105 50.646,304.861 51.247 C 305.213 51.368,305.680 51.573,305.900 51.704 C 307.263 52.515,309.597 52.415,309.601 51.545 C 309.602 51.410,309.746 51.030,309.921 50.700 C 310.924 48.812,311.534 43.792,311.004 41.800 C 310.902 41.415,310.687 40.605,310.526 40.000 C 310.136 38.530,309.601 37.205,309.160 36.623 C 308.962 36.361,308.800 36.062,308.800 35.960 C 308.800 34.172,302.969 29.716,299.062 28.518 C 297.792 28.129,297.956 28.119,297.327 28.615 M326.200 30.393 C 321.856 31.069,317.845 34.075,314.936 38.836 C 312.817 42.306,312.437 49.648,314.228 52.545 C 314.687 53.288,314.618 53.274,316.384 52.982 C 320.258 52.339,324.628 49.521,326.732 46.309 C 327.024 45.864,327.428 45.256,327.631 44.958 C 327.834 44.660,328.000 44.355,328.000 44.280 C 328.000 44.205,328.175 43.774,328.388 43.322 C 329.728 40.482,330.119 35.413,329.214 32.624 C 328.986 31.922,328.800 31.230,328.800 31.085 C 328.800 30.725,328.000 30.194,327.505 30.227 C 327.282 30.241,326.695 30.316,326.200 30.393 M232.200 30.808 C 231.375 31.020,230.567 31.195,230.404 31.197 C 229.599 31.206,225.954 32.912,223.829 34.273 C 220.752 36.245,215.800 42.888,215.800 45.044 C 215.800 45.196,215.709 45.411,215.597 45.523 C 215.377 45.743,214.876 48.254,214.598 50.532 C 214.261 53.297,215.328 59.208,216.349 60.229 C 216.626 60.506,220.198 60.099,221.048 59.694 C 221.349 59.550,221.889 59.370,222.248 59.293 C 222.607 59.217,223.125 59.037,223.400 58.895 C 223.675 58.752,224.361 58.408,224.924 58.129 C 225.487 57.851,226.297 57.392,226.724 57.108 C 227.151 56.825,227.670 56.482,227.879 56.346 C 228.087 56.211,228.492 55.888,228.779 55.628 C 229.065 55.369,229.525 54.961,229.800 54.723 C 234.577 50.588,237.783 41.880,236.619 36.200 C 236.496 35.595,236.274 34.515,236.128 33.800 C 235.460 30.539,234.902 30.114,232.200 30.808 M201.618 38.887 C 190.479 47.105,189.871 64.461,200.429 72.823 L 201.203 73.436 202.106 72.907 C 205.650 70.830,209.516 65.180,210.527 60.600 C 210.685 59.885,210.897 58.940,210.998 58.500 C 211.792 55.054,210.570 48.209,208.589 45.000 C 208.488 44.835,208.230 44.385,208.017 44.000 C 207.391 42.869,205.085 40.109,204.025 39.221 C 202.889 38.270,202.523 38.219,201.618 38.887 M312.081 54.831 C 311.991 54.977,312.026 55.007,312.178 54.914 C 312.310 54.832,312.549 54.874,312.709 55.007 C 312.881 55.150,313.000 55.166,313.000 55.046 C 313.000 54.934,312.858 54.788,312.684 54.721 C 312.264 54.560,312.246 54.563,312.081 54.831 M320.800 56.135 C 317.604 56.541,315.000 58.043,315.578 59.148 C 315.679 59.341,316.063 60.130,316.431 60.900 C 318.275 64.759,322.969 67.600,327.500 67.600 C 328.794 67.600,331.478 67.085,332.053 66.727 C 332.299 66.573,332.736 66.393,333.025 66.326 C 334.289 66.034,334.306 64.102,333.059 62.584 C 332.917 62.411,332.800 62.199,332.800 62.114 C 332.800 61.779,330.693 59.457,329.725 58.725 C 327.289 56.884,323.520 55.790,320.800 56.135 M116.391 59.115 C 114.699 60.838,114.677 60.864,113.562 62.580 C 113.029 63.398,112.000 65.441,111.999 65.682 C 111.998 65.802,111.873 66.139,111.721 66.430 C 110.290 69.172,110.373 75.905,111.887 79.969 C 113.277 83.700,118.105 89.400,119.874 89.400 C 120.199 89.400,122.145 87.541,122.910 86.500 C 123.233 86.060,123.553 85.655,123.620 85.600 C 124.986 84.487,126.927 78.782,127.126 75.300 C 127.303 72.181,126.288 67.209,125.162 65.679 C 125.072 65.557,124.768 65.022,124.484 64.490 C 124.201 63.957,123.751 63.262,123.485 62.945 C 123.218 62.629,122.999 62.309,122.999 62.235 C 122.994 61.679,118.488 57.800,117.848 57.800 C 117.757 57.800,117.101 58.392,116.391 59.115 M312.161 58.150 C 311.809 58.560,311.545 59.000,311.651 59.000 C 311.691 59.000,311.924 58.730,312.168 58.400 C 312.650 57.748,312.646 57.586,312.161 58.150 M300.300 60.400 C 299.518 60.918,299.796 60.918,300.645 60.401 C 301.005 60.181,301.210 60.002,301.100 60.002 C 300.990 60.002,300.630 60.181,300.300 60.400 M212.240 63.240 C 212.108 63.372,212.000 63.569,212.000 63.678 C 212.000 63.787,212.113 63.731,212.250 63.552 C 212.388 63.374,212.725 63.189,213.000 63.141 L 213.500 63.054 212.990 63.027 C 212.710 63.012,212.372 63.108,212.240 63.240 M227.344 65.394 C 224.374 65.999,219.200 69.436,219.200 70.805 C 219.200 70.921,219.008 71.275,218.774 71.592 C 218.203 72.364,218.392 73.033,219.349 73.622 C 221.187 74.756,221.625 74.970,223.020 75.418 C 225.783 76.306,229.984 75.947,232.200 74.632 C 234.829 73.073,236.890 71.009,237.662 69.160 C 238.629 66.846,232.034 64.440,227.344 65.394 M284.700 67.600 C 283.918 68.118,284.196 68.118,285.045 67.601 C 285.405 67.381,285.610 67.202,285.500 67.202 C 285.390 67.202,285.030 67.381,284.700 67.600 M209.392 68.343 C 209.042 68.862,208.896 69.169,209.067 69.027 C 209.381 68.767,210.255 67.400,210.107 67.400 C 210.064 67.400,209.742 67.824,209.392 68.343 M286.700 71.614 C 286.370 71.825,286.190 71.998,286.300 71.998 C 286.410 71.997,286.770 71.819,287.100 71.600 C 287.430 71.381,287.610 71.209,287.500 71.216 C 287.390 71.223,287.030 71.402,286.700 71.614 M206.189 72.350 L 205.500 73.100 206.250 72.411 C 206.663 72.032,207.000 71.694,207.000 71.661 C 207.000 71.508,206.831 71.652,206.189 72.350 M210.789 74.550 L 210.100 75.300 210.850 74.611 C 211.263 74.232,211.600 73.894,211.600 73.861 C 211.600 73.708,211.431 73.852,210.789 74.550 M279.900 74.814 C 279.570 75.025,279.390 75.198,279.500 75.198 C 279.610 75.197,279.970 75.019,280.300 74.800 C 280.630 74.581,280.810 74.409,280.700 74.416 C 280.590 74.423,280.230 74.602,279.900 74.814 M202.000 75.729 C 200.978 76.452,200.788 76.701,201.634 76.207 C 202.038 75.972,202.476 75.649,202.609 75.490 C 202.929 75.103,202.830 75.143,202.000 75.729 M94.000 79.750 C 92.486 80.046,91.410 80.424,89.400 81.367 C 87.830 82.103,87.627 82.699,88.400 84.300 C 88.613 84.740,88.789 85.208,88.793 85.339 C 88.831 86.678,92.935 91.895,94.977 93.200 C 95.235 93.365,95.638 93.643,95.873 93.817 C 99.123 96.230,105.493 97.447,109.414 96.405 C 110.231 96.187,111.055 96.007,111.244 96.005 C 111.434 96.002,112.458 95.588,113.521 95.085 L 115.454 94.170 115.330 92.988 C 115.189 91.635,113.985 88.953,112.732 87.200 C 108.509 81.290,101.127 78.354,94.000 79.750 M266.900 80.507 C 266.570 80.658,266.440 80.786,266.612 80.791 C 266.783 80.796,267.098 80.668,267.312 80.506 C 267.786 80.148,267.685 80.148,266.900 80.507 M188.200 82.100 C 187.925 82.257,187.790 82.386,187.900 82.386 C 188.010 82.386,188.325 82.257,188.600 82.100 C 188.875 81.943,189.010 81.814,188.900 81.814 C 188.790 81.814,188.475 81.943,188.200 82.100 M195.300 84.414 C 194.970 84.625,194.790 84.798,194.900 84.798 C 195.010 84.797,195.370 84.619,195.700 84.400 C 196.030 84.181,196.210 84.009,196.100 84.016 C 195.990 84.023,195.630 84.202,195.300 84.414 M233.700 84.400 C 233.448 84.508,233.411 84.572,233.600 84.572 C 233.765 84.572,234.080 84.495,234.300 84.400 C 234.552 84.292,234.589 84.228,234.400 84.228 C 234.235 84.228,233.920 84.305,233.700 84.400 M155.457 84.948 C 156.094 84.988,157.084 84.987,157.657 84.947 C 158.231 84.907,157.710 84.874,156.500 84.875 C 155.290 84.875,154.821 84.908,155.457 84.948 M166.260 84.949 C 167.228 84.986,168.758 84.986,169.660 84.949 C 170.562 84.912,169.770 84.882,167.900 84.882 C 166.030 84.882,165.292 84.912,166.260 84.949 M152.450 85.138 C 152.643 85.188,152.958 85.188,153.150 85.138 C 153.343 85.088,153.185 85.046,152.800 85.046 C 152.415 85.046,152.258 85.088,152.450 85.138 M175.650 85.148 C 176.393 85.187,177.608 85.187,178.350 85.148 C 179.093 85.110,178.485 85.078,177.000 85.078 C 175.515 85.078,174.908 85.110,175.650 85.148 M151.050 85.338 C 151.243 85.388,151.558 85.388,151.750 85.338 C 151.942 85.288,151.785 85.246,151.400 85.246 C 151.015 85.246,150.858 85.288,151.050 85.338 M227.050 85.538 C 227.243 85.588,227.558 85.588,227.750 85.538 C 227.943 85.488,227.785 85.446,227.400 85.446 C 227.015 85.446,226.857 85.488,227.050 85.538 M195.450 85.738 C 195.643 85.788,195.958 85.788,196.150 85.738 C 196.343 85.688,196.185 85.646,195.800 85.646 C 195.415 85.646,195.258 85.688,195.450 85.738 M224.552 85.741 C 224.801 85.789,225.161 85.787,225.352 85.737 C 225.544 85.687,225.340 85.648,224.900 85.650 C 224.460 85.653,224.304 85.694,224.552 85.741 M221.800 86.000 C 221.125 86.142,221.122 86.147,221.700 86.150 C 222.030 86.151,222.570 86.084,222.900 86.000 C 223.730 85.789,222.803 85.789,221.800 86.000 M198.450 86.138 C 198.643 86.188,198.958 86.188,199.150 86.138 C 199.343 86.088,199.185 86.046,198.800 86.046 C 198.415 86.046,198.258 86.088,198.450 86.138 M200.350 86.341 C 200.597 86.389,201.003 86.389,201.250 86.341 C 201.498 86.293,201.295 86.254,200.800 86.254 C 200.305 86.254,200.103 86.293,200.350 86.341 M219.050 86.343 C 219.353 86.389,219.847 86.389,220.150 86.343 C 220.453 86.297,220.205 86.260,219.600 86.260 C 218.995 86.260,218.748 86.297,219.050 86.343 M207.462 86.550 C 208.981 86.584,211.411 86.584,212.862 86.549 C 214.313 86.515,213.070 86.487,210.100 86.488 C 207.130 86.488,205.943 86.516,207.462 86.550 M136.400 88.500 C 136.125 88.657,135.990 88.786,136.100 88.786 C 136.210 88.786,136.525 88.657,136.800 88.500 C 137.075 88.343,137.210 88.214,137.100 88.214 C 136.990 88.214,136.675 88.343,136.400 88.500 M257.900 88.537 C 256.473 88.903,254.022 89.787,253.600 90.089 C 253.435 90.206,252.890 90.516,252.388 90.776 C 251.112 91.439,248.483 93.695,247.463 95.002 C 246.467 96.280,244.800 99.061,244.800 99.446 C 244.800 99.592,244.670 99.896,244.512 100.123 C 244.250 100.496,243.894 101.705,243.398 103.900 C 243.153 104.983,243.154 108.717,243.398 109.923 C 244.031 113.038,244.833 114.916,245.516 114.879 C 246.201 114.842,249.078 114.184,249.292 114.016 C 249.406 113.926,249.854 113.738,250.286 113.599 C 253.639 112.517,258.351 108.159,259.798 104.800 C 259.917 104.525,260.187 103.940,260.399 103.500 C 260.610 103.060,260.832 102.459,260.892 102.165 C 261.022 101.521,261.962 100.353,262.221 100.513 C 262.323 100.576,262.542 100.914,262.708 101.264 C 263.345 102.604,263.541 102.861,265.400 104.793 C 266.830 106.279,268.695 107.800,269.087 107.800 C 269.225 107.800,269.501 107.980,269.700 108.200 C 269.899 108.420,270.206 108.601,270.381 108.601 C 270.556 108.602,270.970 108.781,271.300 109.000 C 271.630 109.219,272.100 109.398,272.344 109.399 C 272.588 109.399,273.128 109.575,273.544 109.789 C 274.178 110.116,274.800 110.188,277.395 110.239 L 280.490 110.300 280.870 109.501 C 281.362 108.464,281.392 105.752,280.928 104.214 C 280.747 103.616,280.600 102.805,280.600 102.411 C 280.600 102.017,280.420 101.358,280.200 100.948 C 279.980 100.537,279.800 100.033,279.800 99.828 C 279.800 99.622,279.620 99.225,279.400 98.945 C 279.180 98.666,279.000 98.308,279.000 98.149 C 279.000 97.991,278.820 97.699,278.600 97.500 C 278.380 97.301,278.200 97.016,278.200 96.867 C 278.200 96.718,278.020 96.442,277.800 96.254 C 277.580 96.065,277.400 95.834,277.400 95.740 C 277.400 95.470,274.127 92.200,273.857 92.200 C 273.723 92.200,273.518 92.020,273.400 91.800 C 273.282 91.580,273.066 91.400,272.920 91.400 C 272.774 91.400,272.425 91.220,272.145 91.000 C 271.866 90.780,271.530 90.600,271.400 90.600 C 271.270 90.600,270.934 90.420,270.655 90.200 C 270.375 89.980,269.956 89.799,269.723 89.799 C 269.490 89.798,269.030 89.619,268.700 89.400 C 268.368 89.180,267.762 89.002,267.344 89.001 C 266.928 89.001,266.253 88.852,265.844 88.672 C 264.772 88.200,259.561 88.111,257.900 88.537 M240.700 89.200 C 240.448 89.308,240.411 89.372,240.600 89.372 C 240.765 89.372,241.080 89.295,241.300 89.200 C 241.552 89.092,241.589 89.028,241.400 89.028 C 241.235 89.028,240.920 89.105,240.700 89.200 M159.640 90.349 C 160.597 90.385,162.217 90.386,163.240 90.349 C 164.263 90.313,163.480 90.283,161.500 90.283 C 159.520 90.282,158.683 90.312,159.640 90.349 M232.952 90.341 C 233.201 90.389,233.561 90.387,233.752 90.337 C 233.944 90.287,233.740 90.248,233.300 90.250 C 232.860 90.253,232.704 90.294,232.952 90.341 M151.354 90.545 C 151.713 90.589,152.253 90.589,152.554 90.543 C 152.854 90.497,152.560 90.461,151.900 90.462 C 151.240 90.463,150.994 90.500,151.354 90.545 M172.857 90.548 C 173.494 90.588,174.484 90.587,175.057 90.547 C 175.631 90.507,175.110 90.474,173.900 90.475 C 172.690 90.475,172.221 90.508,172.857 90.548 M229.550 90.541 C 229.798 90.589,230.203 90.589,230.450 90.541 C 230.697 90.493,230.495 90.454,230.000 90.454 C 229.505 90.454,229.303 90.493,229.550 90.541 M149.250 90.738 C 149.442 90.788,149.758 90.788,149.950 90.738 C 150.143 90.688,149.985 90.646,149.600 90.646 C 149.215 90.646,149.058 90.688,149.250 90.738 M177.546 90.744 C 177.901 90.789,178.531 90.789,178.946 90.746 C 179.360 90.703,179.070 90.667,178.300 90.666 C 177.530 90.665,177.190 90.700,177.546 90.744 M227.752 90.741 C 228.001 90.789,228.361 90.787,228.552 90.737 C 228.744 90.687,228.540 90.648,228.100 90.650 C 227.660 90.653,227.504 90.694,227.752 90.741 M180.550 90.945 C 180.908 90.989,181.493 90.989,181.850 90.945 C 182.208 90.900,181.915 90.864,181.200 90.864 C 180.485 90.864,180.192 90.900,180.550 90.945 M226.152 90.941 C 226.401 90.989,226.761 90.987,226.952 90.937 C 227.144 90.887,226.940 90.848,226.500 90.850 C 226.060 90.853,225.904 90.894,226.152 90.941 M146.250 91.138 C 146.442 91.188,146.758 91.188,146.950 91.138 C 147.143 91.088,146.985 91.046,146.600 91.046 C 146.215 91.046,146.058 91.088,146.250 91.138 M185.250 91.147 C 185.773 91.188,186.628 91.188,187.150 91.147 C 187.673 91.106,187.245 91.072,186.200 91.072 C 185.155 91.072,184.728 91.106,185.250 91.147 M222.950 91.145 C 223.308 91.189,223.893 91.189,224.250 91.145 C 224.607 91.100,224.315 91.064,223.600 91.064 C 222.885 91.064,222.593 91.100,222.950 91.145 M194.658 91.348 C 195.405 91.387,196.575 91.387,197.258 91.348 C 197.941 91.309,197.330 91.277,195.900 91.278 C 194.470 91.278,193.911 91.310,194.658 91.348 M215.950 91.347 C 216.528 91.388,217.472 91.388,218.050 91.347 C 218.628 91.307,218.155 91.274,217.000 91.274 C 215.845 91.274,215.373 91.307,215.950 91.347 M142.700 91.600 C 142.448 91.708,142.411 91.772,142.600 91.772 C 142.765 91.772,143.080 91.695,143.300 91.600 C 143.552 91.492,143.589 91.428,143.400 91.428 C 143.235 91.428,142.920 91.505,142.700 91.600 M203.550 91.550 C 205.338 91.583,208.263 91.583,210.050 91.550 C 211.838 91.516,210.375 91.489,206.800 91.489 C 203.225 91.489,201.763 91.516,203.550 91.550 M136.400 93.100 C 135.747 93.473,135.975 93.478,136.827 93.108 C 137.197 92.947,137.365 92.815,137.200 92.815 C 137.035 92.815,136.675 92.943,136.400 93.100 M161.900 94.054 C 157.607 95.163,151.400 98.921,151.400 100.411 C 151.400 102.196,157.713 108.023,160.600 108.902 C 160.875 108.985,161.278 109.177,161.495 109.327 C 161.711 109.477,162.037 109.600,162.218 109.600 C 162.400 109.600,163.122 109.790,163.824 110.023 C 167.246 111.158,174.178 110.423,177.400 108.583 C 177.565 108.489,178.060 108.232,178.500 108.011 C 181.538 106.487,183.771 104.086,183.190 102.969 C 181.881 100.451,175.767 95.208,174.130 95.199 C 174.004 95.198,173.650 95.067,173.344 94.908 C 170.941 93.654,165.127 93.220,161.900 94.054 M130.500 95.600 C 130.170 95.819,129.990 95.996,130.100 95.994 C 130.301 95.991,131.388 95.212,131.200 95.206 C 131.145 95.204,130.830 95.381,130.500 95.600 M119.372 96.412 L 118.900 96.824 119.500 96.472 C 120.290 96.010,120.301 96.000,120.055 96.000 C 119.939 96.000,119.632 96.185,119.372 96.412 M112.628 100.407 C 112.008 100.923,112.288 100.917,112.945 100.400 C 113.225 100.180,113.374 100.003,113.277 100.007 C 113.180 100.010,112.888 100.190,112.628 100.407 M123.487 101.250 L 122.900 101.900 123.550 101.313 C 123.908 100.990,124.200 100.697,124.200 100.663 C 124.200 100.508,124.035 100.644,123.487 101.250 M109.550 102.315 C 109.138 102.585,108.800 102.846,108.800 102.896 C 108.800 103.029,110.182 102.191,110.312 101.980 C 110.468 101.728,110.399 101.759,109.550 102.315 M122.190 102.813 C 121.673 103.465,121.597 103.673,121.802 103.863 C 122.001 104.047,122.027 104.043,121.915 103.846 C 121.831 103.698,122.034 103.263,122.403 102.796 C 122.750 102.358,122.989 102.000,122.934 102.000 C 122.879 102.000,122.544 102.366,122.190 102.813 M130.952 103.541 C 131.201 103.589,131.561 103.587,131.752 103.537 C 131.944 103.487,131.740 103.448,131.300 103.450 C 130.860 103.453,130.704 103.494,130.952 103.541 M127.250 103.747 C 127.772 103.788,128.628 103.788,129.150 103.747 C 129.672 103.706,129.245 103.672,128.200 103.672 C 127.155 103.672,126.728 103.706,127.250 103.747 M134.755 103.747 C 135.226 103.789,135.946 103.788,136.355 103.745 C 136.765 103.702,136.380 103.668,135.500 103.669 C 134.620 103.669,134.285 103.704,134.755 103.747 M123.954 103.945 C 124.313 103.989,124.853 103.989,125.154 103.943 C 125.454 103.897,125.160 103.861,124.500 103.862 C 123.840 103.863,123.594 103.900,123.954 103.945 M138.250 103.943 C 138.553 103.989,139.047 103.989,139.350 103.943 C 139.653 103.897,139.405 103.860,138.800 103.860 C 138.195 103.860,137.947 103.897,138.250 103.943 M142.050 104.138 C 142.243 104.188,142.558 104.188,142.750 104.138 C 142.942 104.088,142.785 104.046,142.400 104.046 C 142.015 104.046,141.858 104.088,142.050 104.138 M144.200 104.400 C 144.475 104.488,144.880 104.560,145.100 104.560 C 145.417 104.560,145.396 104.527,145.000 104.400 C 144.725 104.312,144.320 104.240,144.100 104.240 C 143.783 104.240,143.804 104.273,144.200 104.400 M103.609 106.125 C 103.229 106.395,102.869 106.669,102.809 106.735 C 102.612 106.951,103.690 106.348,104.177 105.970 C 104.878 105.426,104.416 105.552,103.609 106.125 M133.050 107.548 C 133.683 107.587,134.718 107.587,135.350 107.548 C 135.983 107.508,135.465 107.476,134.200 107.476 C 132.935 107.476,132.417 107.508,133.050 107.548 M130.752 107.741 C 131.001 107.789,131.361 107.787,131.552 107.737 C 131.744 107.687,131.540 107.648,131.100 107.650 C 130.660 107.653,130.504 107.694,130.752 107.741 M137.050 107.738 C 137.243 107.788,137.558 107.788,137.750 107.738 C 137.942 107.688,137.785 107.646,137.400 107.646 C 137.015 107.646,136.858 107.688,137.050 107.738 M128.650 107.938 C 128.843 107.988,129.157 107.988,129.350 107.938 C 129.542 107.888,129.385 107.846,129.000 107.846 C 128.615 107.846,128.458 107.888,128.650 107.938 M138.850 107.938 C 139.042 107.988,139.358 107.988,139.550 107.938 C 139.743 107.888,139.585 107.846,139.200 107.846 C 138.815 107.846,138.657 107.888,138.850 107.938 M98.620 109.317 C 98.247 109.583,98.027 109.800,98.132 109.800 C 98.236 109.800,98.627 109.575,99.000 109.300 C 99.868 108.660,99.524 108.675,98.620 109.317 M114.850 109.738 C 115.043 109.788,115.358 109.788,115.550 109.738 C 115.743 109.688,115.585 109.646,115.200 109.646 C 114.815 109.646,114.658 109.688,114.850 109.738 M146.700 110.000 C 147.030 110.219,147.390 110.398,147.500 110.398 C 147.610 110.398,147.405 110.219,147.045 109.999 C 146.196 109.482,145.918 109.482,146.700 110.000 M113.152 109.941 C 113.401 109.989,113.761 109.987,113.952 109.937 C 114.144 109.887,113.940 109.848,113.500 109.850 C 113.060 109.853,112.904 109.894,113.152 109.941 M95.028 111.607 C 94.408 112.123,94.688 112.117,95.345 111.600 C 95.625 111.380,95.774 111.203,95.677 111.207 C 95.580 111.210,95.288 111.390,95.028 111.607 M159.760 112.978 C 158.352 113.275,157.903 115.143,158.721 117.300 C 158.888 117.740,159.118 118.415,159.232 118.800 C 159.346 119.185,159.566 119.642,159.720 119.816 C 159.874 119.989,160.000 120.229,160.000 120.348 C 160.000 120.983,162.557 123.731,164.155 124.814 C 166.880 126.661,171.317 127.478,174.000 126.627 L 175.100 126.278 175.072 124.989 C 174.912 117.726,166.932 111.466,159.760 112.978 M141.738 113.750 C 140.638 115.682,140.294 122.748,141.173 125.376 C 141.408 126.078,141.600 126.784,141.600 126.945 C 141.600 127.106,141.726 127.477,141.881 127.769 C 142.036 128.061,142.418 128.840,142.731 129.500 C 144.448 133.122,147.817 136.750,151.100 138.514 C 151.320 138.632,151.680 138.828,151.900 138.948 C 152.965 139.533,153.980 139.964,154.608 140.098 C 154.989 140.179,155.402 140.328,155.528 140.429 C 156.040 140.840,161.051 141.413,161.509 141.112 C 163.763 139.636,163.160 129.111,160.587 125.000 C 160.484 124.835,160.313 124.502,160.209 124.261 C 159.262 122.079,155.386 118.060,152.900 116.684 C 150.841 115.544,150.156 115.200,149.945 115.199 C 149.810 115.198,149.439 115.062,149.120 114.895 C 148.606 114.627,147.873 114.435,144.900 113.791 C 143.904 113.575,141.853 113.548,141.738 113.750 M101.972 116.212 L 101.500 116.624 102.100 116.272 C 102.890 115.810,102.901 115.800,102.655 115.800 C 102.539 115.800,102.232 115.985,101.972 116.212 M82.100 118.800 C 81.318 119.318,81.596 119.318,82.445 118.801 C 82.805 118.581,83.010 118.402,82.900 118.402 C 82.790 118.402,82.430 118.581,82.100 118.800 M93.700 121.200 C 93.370 121.419,93.190 121.596,93.300 121.594 C 93.501 121.591,94.588 120.812,94.400 120.806 C 94.345 120.804,94.030 120.981,93.700 121.200 M72.000 122.900 C 71.725 123.057,71.590 123.186,71.700 123.186 C 71.810 123.186,72.125 123.057,72.400 122.900 C 72.675 122.743,72.810 122.614,72.700 122.614 C 72.590 122.614,72.275 122.743,72.000 122.900 M70.699 123.601 C 70.188 124.166,70.405 124.219,70.943 123.660 C 71.186 123.407,71.313 123.200,71.224 123.200 C 71.135 123.200,70.899 123.381,70.699 123.601 M70.060 126.000 C 70.060 126.605,70.097 126.853,70.143 126.550 C 70.189 126.248,70.189 125.753,70.143 125.450 C 70.097 125.147,70.060 125.395,70.060 126.000 M74.800 129.900 C 74.147 130.273,74.375 130.278,75.227 129.908 C 75.597 129.747,75.765 129.615,75.600 129.615 C 75.435 129.615,75.075 129.743,74.800 129.900 M37.300 139.600 C 36.790 139.819,37.316 139.819,38.000 139.600 C 38.402 139.471,38.422 139.439,38.100 139.434 C 37.880 139.431,37.520 139.505,37.300 139.600 M140.184 140.750 C 139.959 141.048,139.961 141.063,140.200 140.850 C 140.688 140.415,146.724 140.504,146.984 140.950 C 147.096 141.143,147.191 141.206,147.194 141.090 C 147.217 140.300,140.761 139.987,140.184 140.750 M179.210 140.982 C 178.889 141.580,178.919 185.839,179.240 186.160 C 179.536 186.456,184.130 186.493,184.887 186.205 C 185.298 186.049,185.400 185.875,185.400 185.335 C 185.400 184.656,185.751 183.400,185.941 183.400 C 185.997 183.400,186.492 183.758,187.041 184.195 C 191.402 187.667,198.994 187.961,204.656 184.875 C 209.715 182.119,212.294 172.233,210.206 163.600 C 209.897 162.323,208.821 159.705,208.356 159.100 C 206.215 156.311,204.684 155.201,201.569 154.181 C 199.563 153.524,193.062 153.460,191.100 154.078 C 189.412 154.610,187.564 155.396,187.145 155.761 C 186.365 156.442,186.305 155.963,186.200 148.140 L 186.100 140.700 182.760 140.645 C 179.617 140.594,179.407 140.614,179.210 140.982 M348.750 140.816 C 348.174 141.151,348.211 185.885,348.787 186.193 C 349.195 186.411,354.384 186.479,355.142 186.276 L 355.585 186.157 355.642 174.480 L 355.700 162.804 356.200 162.346 C 357.204 161.428,359.530 160.000,360.022 160.000 C 360.132 160.000,360.645 159.805,361.161 159.567 C 362.800 158.811,367.286 158.923,368.932 159.760 C 371.743 161.191,371.797 161.476,371.798 175.010 C 371.800 183.227,371.859 185.979,372.040 186.160 C 372.294 186.414,377.677 186.508,378.550 186.274 L 379.000 186.153 379.000 174.909 C 379.000 160.833,378.741 159.122,376.230 156.611 C 373.925 154.306,372.291 153.740,367.651 153.641 C 364.276 153.569,363.816 153.617,361.360 154.300 C 360.213 154.619,357.376 155.997,356.779 156.526 C 355.694 157.486,355.606 156.876,355.603 148.390 C 355.601 142.974,355.538 141.018,355.360 140.840 C 355.058 140.538,349.264 140.517,348.750 140.816 M32.200 142.300 C 31.714 142.795,31.362 143.200,31.417 143.200 C 31.472 143.200,31.914 142.795,32.400 142.300 C 32.886 141.805,33.238 141.400,33.183 141.400 C 33.128 141.400,32.686 141.805,32.200 142.300 M37.887 146.250 L 37.300 146.900 37.950 146.313 C 38.556 145.765,38.692 145.600,38.537 145.600 C 38.503 145.600,38.210 145.893,37.887 146.250 M36.675 151.300 C 36.675 152.510,36.708 152.979,36.748 152.343 C 36.788 151.706,36.787 150.716,36.747 150.143 C 36.707 149.569,36.674 150.090,36.675 151.300 M29.474 151.600 C 29.474 152.755,29.507 153.228,29.547 152.650 C 29.588 152.072,29.588 151.128,29.547 150.550 C 29.507 149.972,29.474 150.445,29.474 151.600 M85.955 153.547 C 86.426 153.589,87.146 153.588,87.555 153.545 C 87.965 153.502,87.580 153.468,86.700 153.469 C 85.820 153.469,85.485 153.504,85.955 153.547 M119.450 153.547 C 119.972 153.588,120.828 153.588,121.350 153.547 C 121.873 153.506,121.445 153.472,120.400 153.472 C 119.355 153.472,118.928 153.506,119.450 153.547 M157.955 153.547 C 158.426 153.589,159.146 153.588,159.555 153.545 C 159.965 153.502,159.580 153.468,158.700 153.469 C 157.820 153.469,157.485 153.504,157.955 153.547 M67.999 156.259 L 68.098 158.900 68.156 156.416 C 68.187 155.050,68.142 153.862,68.056 153.776 C 67.970 153.689,67.945 154.807,67.999 156.259 M235.200 153.795 C 234.925 153.883,234.070 154.137,233.300 154.361 C 230.895 155.058,227.155 156.663,226.379 157.333 C 225.829 157.807,225.437 157.443,225.192 156.233 C 224.748 154.040,225.030 154.200,221.608 154.200 C 218.662 154.200,218.606 154.208,218.499 154.650 C 218.439 154.898,218.415 162.120,218.445 170.700 L 218.500 186.300 221.773 186.355 C 224.018 186.393,225.134 186.338,225.323 186.181 C 225.553 185.990,225.600 184.033,225.600 174.692 C 225.600 168.499,225.654 163.291,225.720 163.119 C 225.938 162.551,230.804 160.493,233.100 159.997 C 233.540 159.902,234.294 159.684,234.775 159.512 C 235.256 159.340,235.846 159.200,236.085 159.200 C 236.884 159.200,237.000 158.846,237.000 156.400 C 237.000 153.564,236.804 153.281,235.200 153.795 M247.900 153.807 C 244.567 154.461,243.771 154.645,242.800 154.986 L 241.700 155.372 241.644 157.986 C 241.583 160.830,241.669 161.005,242.820 160.389 C 243.037 160.273,243.953 160.049,244.857 159.892 C 245.761 159.734,246.994 159.506,247.597 159.385 C 249.562 158.991,256.088 159.250,257.364 159.773 C 259.632 160.702,260.543 162.033,260.745 164.713 C 260.928 167.127,261.527 166.935,253.456 167.058 C 249.630 167.117,246.185 167.255,245.800 167.365 C 243.281 168.085,241.951 168.807,240.450 170.270 C 239.763 170.940,239.200 171.574,239.200 171.678 C 239.200 171.783,239.079 172.011,238.931 172.184 C 236.946 174.514,237.496 180.693,239.940 183.516 C 242.831 186.855,251.264 188.158,256.100 186.013 C 257.806 185.257,258.555 184.863,259.429 184.262 C 260.728 183.368,261.392 183.822,261.399 185.610 C 261.401 186.282,261.843 186.400,264.353 186.400 C 268.013 186.400,267.601 187.820,267.596 175.243 C 267.592 162.180,267.434 160.758,265.719 158.300 C 264.082 155.954,262.182 154.871,257.800 153.783 C 256.943 153.571,249.008 153.590,247.900 153.807 M289.700 154.189 C 287.430 154.900,286.669 155.232,285.040 156.222 C 283.399 157.219,283.171 157.179,282.875 155.843 C 282.506 154.182,282.545 154.200,279.316 154.200 C 277.377 154.200,276.404 154.276,276.240 154.440 C 275.860 154.820,275.896 185.865,276.277 186.181 C 276.466 186.338,277.582 186.393,279.827 186.355 L 283.100 186.300 283.152 174.566 L 283.203 162.831 284.126 162.019 C 288.720 157.976,296.709 157.965,298.827 162.000 L 299.300 162.900 299.362 174.530 L 299.423 186.159 299.862 186.277 C 300.874 186.548,306.143 186.409,306.396 186.105 C 306.586 185.876,306.622 183.100,306.556 173.855 L 306.470 161.900 305.943 160.350 C 304.739 156.805,303.174 155.240,299.699 154.106 C 297.323 153.330,292.309 153.372,289.700 154.189 M326.600 153.810 C 324.660 154.265,323.454 154.612,322.906 154.873 C 322.573 155.031,322.075 155.259,321.800 155.379 C 320.690 155.863,318.097 157.872,317.393 158.794 C 317.122 159.149,316.712 159.678,316.483 159.970 C 316.128 160.420,315.516 161.620,314.784 163.300 C 313.484 166.280,313.508 173.680,314.830 177.400 C 316.197 181.247,319.307 184.565,322.516 185.599 C 322.947 185.738,323.390 185.922,323.500 186.008 C 325.020 187.190,336.606 187.139,338.900 185.940 C 339.120 185.825,339.569 185.675,339.898 185.607 C 340.774 185.427,340.994 184.802,340.997 182.474 C 341.001 180.003,340.843 179.764,339.545 180.277 C 335.464 181.887,329.409 181.861,325.770 180.219 C 319.608 177.437,319.326 164.083,325.356 160.697 C 328.835 158.744,335.693 158.565,339.764 160.320 C 340.742 160.742,340.800 160.606,340.800 157.906 L 340.800 155.436 339.931 155.015 C 339.148 154.636,338.051 154.292,336.000 153.783 C 335.125 153.566,327.548 153.588,326.600 153.810 M91.573 154.108 C 91.943 154.269,92.348 154.396,92.473 154.392 C 92.598 154.388,92.397 154.253,92.027 154.092 C 91.657 153.931,91.252 153.804,91.127 153.808 C 91.002 153.812,91.203 153.947,91.573 154.108 M126.100 154.000 C 126.320 154.095,126.635 154.172,126.800 154.172 C 126.989 154.172,126.952 154.108,126.700 154.000 C 126.480 153.905,126.165 153.828,126.000 153.828 C 125.811 153.828,125.848 153.892,126.100 154.000 M44.531 154.400 C 44.658 154.565,44.803 154.925,44.854 155.200 L 44.946 155.700 44.973 155.174 C 44.988 154.885,44.843 154.526,44.650 154.374 C 44.345 154.136,44.330 154.139,44.531 154.400 M129.536 154.900 C 129.626 155.120,129.700 156.484,129.700 157.931 C 129.700 159.378,129.768 160.520,129.850 160.469 C 130.154 160.281,130.006 155.532,129.679 155.000 C 129.510 154.725,129.446 154.680,129.536 154.900 M49.495 170.400 C 49.495 179.035,49.520 182.568,49.550 178.250 C 49.580 173.933,49.580 166.868,49.550 162.550 C 49.520 158.233,49.495 161.765,49.495 170.400 M167.400 156.300 C 167.773 156.685,168.123 157.000,168.178 157.000 C 168.233 157.000,167.973 156.685,167.600 156.300 C 167.227 155.915,166.877 155.600,166.822 155.600 C 166.767 155.600,167.027 155.915,167.400 156.300 M56.413 156.826 C 56.397 157.237,56.905 157.671,57.243 157.535 C 57.402 157.471,57.364 157.426,57.144 157.416 C 56.948 157.407,56.706 157.197,56.606 156.950 C 56.484 156.645,56.421 156.605,56.413 156.826 M44.584 159.200 L 44.500 159.700 40.815 159.755 C 38.510 159.789,37.031 159.892,36.865 160.029 C 36.649 160.208,36.609 162.646,36.648 173.174 L 36.696 186.100 36.798 173.100 L 36.900 160.100 40.629 160.046 C 44.549 159.989,44.942 159.894,44.750 159.060 C 44.687 158.786,44.647 158.819,44.584 159.200 M84.550 159.141 C 84.798 159.189,85.203 159.189,85.450 159.141 C 85.698 159.093,85.495 159.054,85.000 159.054 C 84.505 159.054,84.303 159.093,84.550 159.141 M88.152 159.141 C 88.401 159.189,88.761 159.187,88.952 159.137 C 89.144 159.087,88.940 159.048,88.500 159.050 C 88.060 159.053,87.904 159.094,88.152 159.141 M107.632 159.509 C 107.297 160.244,107.361 160.401,107.724 159.732 C 107.893 159.420,107.994 159.127,107.948 159.081 C 107.902 159.036,107.760 159.228,107.632 159.509 M155.656 159.147 C 156.182 159.189,156.992 159.188,157.456 159.146 C 157.920 159.104,157.490 159.070,156.500 159.071 C 155.510 159.072,155.130 159.106,155.656 159.147 M198.778 159.766 C 200.169 160.333,202.039 161.961,202.306 162.837 C 202.384 163.091,202.607 163.660,202.803 164.100 C 204.212 167.274,203.596 175.421,201.724 178.353 C 199.180 182.341,191.352 182.690,187.200 179.001 L 186.300 178.202 186.242 170.351 C 186.175 161.235,186.096 161.841,187.464 160.933 C 190.445 158.954,195.509 158.431,198.778 159.766 M90.200 159.343 C 90.365 159.404,90.680 159.537,90.900 159.638 C 91.294 159.819,91.294 159.817,90.912 159.511 C 90.698 159.340,90.383 159.207,90.212 159.216 C 89.942 159.229,89.941 159.247,90.200 159.343 M121.150 159.341 C 121.397 159.389,121.803 159.389,122.050 159.341 C 122.297 159.293,122.095 159.254,121.600 159.254 C 121.105 159.254,120.903 159.293,121.150 159.341 M118.100 159.605 C 117.833 159.723,117.999 159.743,118.600 159.663 C 119.095 159.598,119.538 159.512,119.583 159.472 C 119.757 159.322,118.482 159.436,118.100 159.605 M26.157 159.948 C 26.738 159.988,27.638 159.988,28.157 159.947 C 28.676 159.906,28.200 159.873,27.100 159.873 C 26.000 159.874,25.576 159.907,26.157 159.948 M29.400 173.060 L 29.500 186.100 29.551 173.211 C 29.580 166.123,29.535 160.255,29.451 160.171 C 29.368 160.088,29.345 165.888,29.400 173.060 M127.773 160.308 C 128.143 160.469,128.503 160.597,128.573 160.593 C 128.833 160.578,127.688 160.014,127.400 160.015 C 127.235 160.015,127.403 160.147,127.773 160.308 M148.809 161.325 C 148.429 161.595,148.069 161.869,148.009 161.935 C 147.812 162.151,148.890 161.548,149.377 161.170 C 150.078 160.626,149.616 160.752,148.809 161.325 M93.823 162.198 C 94.069 162.637,94.304 162.963,94.344 162.923 C 94.430 162.837,93.603 161.400,93.467 161.400 C 93.416 161.400,93.576 161.759,93.823 162.198 M114.450 162.500 C 114.453 162.940,114.494 163.096,114.541 162.848 C 114.589 162.599,114.587 162.239,114.537 162.048 C 114.487 161.856,114.448 162.060,114.450 162.500 M57.099 162.801 C 56.588 163.366,56.805 163.419,57.343 162.860 C 57.586 162.607,57.713 162.400,57.624 162.400 C 57.535 162.400,57.299 162.581,57.099 162.801 M94.650 165.300 C 94.653 165.740,94.694 165.896,94.741 165.648 C 94.789 165.399,94.787 165.039,94.737 164.848 C 94.687 164.656,94.648 164.860,94.650 165.300 M163.297 175.497 C 163.300 184.951,163.337 186.297,163.600 186.317 C 163.769 186.329,163.792 186.302,163.652 186.255 C 163.459 186.190,163.391 183.767,163.349 175.436 L 163.295 164.700 163.297 175.497 M77.900 165.800 C 77.823 166.255,77.802 166.669,77.854 166.720 C 77.905 166.771,78.007 166.438,78.080 165.980 C 78.153 165.522,78.174 165.108,78.126 165.060 C 78.079 165.012,77.977 165.345,77.900 165.800 M107.414 165.300 C 107.414 165.410,107.543 165.725,107.700 166.000 C 107.857 166.275,107.986 166.410,107.986 166.300 C 107.986 166.190,107.857 165.875,107.700 165.600 C 107.543 165.325,107.414 165.190,107.414 165.300 M101.045 169.010 C 101.014 171.419,100.925 172.595,100.760 172.760 C 100.579 172.941,97.818 173.000,89.560 173.000 C 78.867 173.000,78.590 173.010,78.200 173.400 C 77.757 173.843,77.744 173.923,78.018 174.500 C 78.186 174.853,78.197 174.842,78.112 174.407 C 77.869 173.166,77.548 173.200,89.600 173.200 C 102.767 173.200,101.232 173.761,101.150 168.979 L 101.090 165.500 101.045 169.010 M71.060 168.000 C 71.060 168.605,71.097 168.853,71.143 168.550 C 71.189 168.248,71.189 167.753,71.143 167.450 C 71.097 167.148,71.060 167.395,71.060 168.000 M94.442 167.920 C 94.115 168.275,78.861 168.339,78.137 167.989 C 77.715 167.785,77.713 167.789,78.088 168.089 C 78.993 168.814,95.554 168.465,94.800 167.737 C 94.745 167.684,94.584 167.766,94.442 167.920 M112.700 170.800 C 113.030 171.019,113.390 171.198,113.500 171.198 C 113.610 171.198,113.405 171.019,113.045 170.799 C 112.196 170.282,111.918 170.282,112.700 170.800 M71.057 172.300 C 71.059 172.850,71.098 173.051,71.144 172.747 C 71.189 172.443,71.188 171.993,71.141 171.747 C 71.093 171.501,71.056 171.750,71.057 172.300 M260.756 174.784 L 260.812 177.469 259.630 178.618 C 256.155 181.998,248.482 182.935,245.632 180.328 C 243.485 178.365,244.289 173.777,247.000 172.524 L 248.100 172.015 254.400 172.058 L 260.700 172.100 260.756 174.784 M132.436 177.400 C 132.413 178.115,132.348 178.925,132.292 179.200 L 132.189 179.700 132.403 179.210 C 132.520 178.941,132.585 178.131,132.547 177.410 L 132.478 176.100 132.436 177.400 M80.000 178.855 C 80.000 178.894,80.293 179.139,80.650 179.401 C 81.052 179.695,81.192 179.743,81.016 179.527 C 80.750 179.199,80.000 178.703,80.000 178.855 M109.000 179.700 C 109.275 179.857,109.635 179.985,109.800 179.985 C 109.965 179.985,109.797 179.853,109.427 179.692 C 108.575 179.322,108.347 179.327,109.000 179.700 M124.500 179.618 C 124.390 179.727,124.120 179.952,123.900 180.118 C 123.567 180.369,123.609 180.367,124.150 180.105 C 124.508 179.931,124.800 179.702,124.800 179.595 C 124.800 179.359,124.759 179.362,124.500 179.618 M73.417 180.484 C 73.639 180.860,73.961 181.285,74.133 181.427 C 74.304 181.569,74.158 181.262,73.808 180.743 C 73.068 179.647,72.830 179.489,73.417 180.484 M111.700 180.400 C 111.920 180.495,112.235 180.572,112.400 180.572 C 112.589 180.572,112.552 180.508,112.300 180.400 C 112.080 180.305,111.765 180.228,111.600 180.228 C 111.411 180.228,111.448 180.292,111.700 180.400 M115.453 180.944 C 115.757 180.989,116.207 180.988,116.453 180.941 C 116.699 180.893,116.450 180.856,115.900 180.857 C 115.350 180.859,115.149 180.898,115.453 180.944 M120.253 180.944 C 120.557 180.989,121.007 180.988,121.253 180.941 C 121.499 180.893,121.250 180.856,120.700 180.857 C 120.150 180.859,119.949 180.898,120.253 180.944 M85.500 181.200 C 85.720 181.295,86.080 181.369,86.300 181.366 C 86.622 181.361,86.602 181.329,86.200 181.200 C 85.516 180.981,84.990 180.981,85.500 181.200 M88.458 181.548 C 89.205 181.587,90.375 181.587,91.058 181.548 C 91.741 181.509,91.130 181.477,89.700 181.478 C 88.270 181.478,87.711 181.510,88.458 181.548 M75.000 182.500 C 75.373 182.885,75.723 183.200,75.778 183.200 C 75.833 183.200,75.573 182.885,75.200 182.500 C 74.827 182.115,74.477 181.800,74.422 181.800 C 74.367 181.800,74.627 182.115,75.000 182.500 M80.600 185.900 C 80.875 186.057,81.190 186.186,81.300 186.186 C 81.410 186.186,81.275 186.057,81.000 185.900 C 80.725 185.743,80.410 185.614,80.300 185.614 C 80.190 185.614,80.325 185.743,80.600 185.900 M84.300 186.791 C 84.684 186.965,85.755 187.078,85.583 186.927 C 85.538 186.886,85.140 186.798,84.700 186.731 C 84.142 186.646,84.021 186.664,84.300 186.791 M122.600 186.800 C 122.204 186.927,122.183 186.960,122.500 186.960 C 122.720 186.960,123.125 186.888,123.400 186.800 C 123.796 186.673,123.817 186.640,123.500 186.640 C 123.280 186.640,122.875 186.712,122.600 186.800 M87.557 187.148 C 88.138 187.188,89.038 187.188,89.557 187.147 C 90.076 187.106,89.600 187.073,88.500 187.073 C 87.400 187.074,86.976 187.107,87.557 187.148 M117.857 187.148 C 118.494 187.188,119.484 187.187,120.057 187.147 C 120.631 187.107,120.110 187.074,118.900 187.075 C 117.690 187.075,117.221 187.108,117.857 187.148 " stroke="none" fill="#00db6a" fill-rule="evenodd"></path><path id="path1" d="M0.000 100.000 L 0.000 200.000 200.000 200.000 L 400.000 200.000 400.000 100.000 L 400.000 0.000 200.000 0.000 L 0.000 0.000 0.000 100.000 M299.062 28.518 C 302.969 29.716,308.800 34.172,308.800 35.960 C 308.800 36.062,308.962 36.361,309.160 36.623 C 309.601 37.205,310.136 38.530,310.526 40.000 C 310.687 40.605,310.902 41.415,311.004 41.800 C 311.534 43.792,310.924 48.812,309.921 50.700 C 309.746 51.030,309.602 51.410,309.601 51.545 C 309.597 52.415,307.263 52.515,305.900 51.704 C 305.680 51.573,305.213 51.368,304.861 51.247 C 303.105 50.646,299.484 47.597,298.156 45.600 C 297.585 44.742,296.000 41.494,296.000 41.181 C 296.000 41.057,295.810 40.177,295.579 39.227 C 294.939 36.603,295.387 32.203,296.515 30.041 C 296.671 29.743,296.798 29.394,296.799 29.265 C 296.800 29.056,297.717 28.200,297.939 28.200 C 297.986 28.200,298.492 28.343,299.062 28.518 M328.355 30.511 C 328.600 30.683,328.800 30.941,328.800 31.085 C 328.800 31.230,328.986 31.922,329.214 32.624 C 330.119 35.413,329.728 40.482,328.388 43.322 C 328.175 43.774,328.000 44.205,328.000 44.280 C 328.000 44.355,327.834 44.660,327.631 44.958 C 327.428 45.256,327.024 45.864,326.732 46.309 C 325.937 47.523,323.768 49.672,322.542 50.461 C 320.192 51.973,316.745 53.200,314.850 53.200 C 314.099 53.200,312.998 49.273,313.003 46.609 C 313.007 44.193,313.929 40.485,314.936 38.836 C 318.127 33.614,322.600 30.550,327.505 30.227 C 327.729 30.212,328.111 30.340,328.355 30.511 M235.381 31.500 C 235.645 32.050,235.981 33.085,236.128 33.800 C 236.274 34.515,236.496 35.595,236.619 36.200 C 237.783 41.880,234.577 50.588,229.800 54.723 C 229.525 54.961,229.065 55.369,228.779 55.628 C 228.492 55.888,228.087 56.211,227.879 56.346 C 227.670 56.482,227.151 56.825,226.724 57.108 C 226.297 57.392,225.487 57.851,224.924 58.129 C 224.361 58.408,223.675 58.752,223.400 58.895 C 223.125 59.037,222.607 59.217,222.248 59.293 C 221.889 59.370,221.349 59.550,221.048 59.694 C 220.198 60.099,216.626 60.506,216.349 60.229 C 215.328 59.208,214.261 53.297,214.598 50.532 C 214.876 48.254,215.377 45.743,215.597 45.523 C 215.709 45.411,215.800 45.196,215.800 45.044 C 215.800 42.348,221.314 35.581,225.300 33.384 C 227.164 32.358,229.858 31.203,230.404 31.197 C 230.567 31.195,231.375 31.020,232.200 30.808 C 234.466 30.226,234.804 30.299,235.381 31.500 M204.025 39.221 C 205.085 40.109,207.391 42.869,208.017 44.000 C 208.230 44.385,208.488 44.835,208.589 45.000 C 210.570 48.209,211.792 55.054,210.998 58.500 C 210.897 58.940,210.685 59.885,210.527 60.600 C 209.516 65.180,205.650 70.830,202.106 72.907 L 201.203 73.436 200.429 72.823 C 195.819 69.171,192.800 62.680,192.800 56.416 C 192.800 50.337,195.182 44.881,199.729 40.546 C 202.287 38.106,202.584 38.015,204.025 39.221 M312.734 54.755 C 313.415 55.188,313.192 56.991,312.310 58.186 C 311.559 59.205,310.243 60.049,306.812 61.714 C 305.101 62.545,302.440 63.861,300.900 64.640 C 291.466 69.409,285.031 72.580,280.800 74.545 C 279.384 75.203,278.872 75.435,276.700 76.400 C 276.205 76.620,275.395 76.980,274.900 77.200 C 274.405 77.420,273.572 77.792,273.050 78.027 C 271.292 78.818,270.505 79.156,269.400 79.597 C 268.795 79.838,267.967 80.208,267.560 80.418 C 267.154 80.628,266.702 80.800,266.557 80.800 C 266.413 80.800,265.958 80.980,265.548 81.200 C 265.137 81.420,264.687 81.600,264.548 81.600 C 264.408 81.600,263.958 81.780,263.548 82.000 C 263.137 82.220,262.702 82.400,262.581 82.400 C 262.460 82.400,262.077 82.531,261.730 82.691 C 261.127 82.970,260.599 83.172,258.600 83.888 C 258.105 84.066,257.520 84.295,257.300 84.398 C 256.726 84.667,254.624 85.388,253.787 85.603 C 253.395 85.703,252.810 85.923,252.487 86.091 C 252.164 86.260,251.720 86.401,251.500 86.406 C 251.280 86.410,250.740 86.587,250.300 86.800 C 249.860 87.013,249.320 87.189,249.100 87.193 C 248.880 87.197,248.160 87.375,247.500 87.588 C 243.031 89.034,237.459 90.018,230.500 90.588 C 229.070 90.706,227.000 90.885,225.900 90.987 C 218.413 91.682,196.815 91.682,182.500 90.988 C 171.255 90.442,168.195 90.370,159.900 90.454 C 150.550 90.549,148.517 90.704,142.000 91.823 C 140.113 92.147,134.803 93.655,134.300 94.010 C 134.190 94.088,133.875 94.220,133.600 94.303 C 132.977 94.493,131.131 95.393,130.200 95.962 C 129.815 96.197,129.230 96.538,128.900 96.720 C 127.081 97.724,124.378 100.243,122.417 102.763 C 121.471 103.979,121.641 104.049,124.915 103.791 C 130.570 103.345,142.258 103.747,145.436 104.496 C 146.131 104.660,146.950 104.795,147.255 104.797 C 147.560 104.799,148.322 104.980,148.948 105.200 C 149.574 105.420,150.249 105.600,150.447 105.600 C 152.112 105.600,155.965 108.524,156.035 109.841 C 156.136 111.751,155.306 114.013,154.397 114.301 C 154.077 114.403,152.606 113.524,151.300 112.451 C 150.829 112.064,147.796 110.400,147.559 110.399 C 147.417 110.398,147.030 110.219,146.700 110.000 C 146.370 109.781,145.965 109.599,145.800 109.595 C 145.635 109.590,145.140 109.413,144.700 109.200 C 144.260 108.987,143.709 108.811,143.475 108.807 C 143.241 108.803,142.656 108.660,142.175 108.488 C 139.478 107.527,132.103 107.393,126.400 108.203 C 123.670 108.590,122.023 108.839,119.800 109.201 C 118.535 109.407,116.465 109.679,115.200 109.806 C 111.923 110.133,111.169 110.330,110.022 111.162 C 109.462 111.568,108.576 112.164,108.052 112.487 C 107.529 112.810,106.493 113.462,105.750 113.937 C 102.157 116.234,99.165 118.134,98.568 118.498 C 98.385 118.609,97.575 119.087,96.768 119.559 C 95.960 120.032,94.940 120.641,94.500 120.913 C 94.060 121.184,93.520 121.495,93.300 121.603 C 93.080 121.711,92.450 122.060,91.900 122.379 C 91.350 122.697,89.910 123.469,88.700 124.093 C 87.490 124.717,86.365 125.304,86.200 125.396 C 85.608 125.728,82.405 127.200,82.276 127.200 C 82.203 127.200,81.774 127.368,81.322 127.573 C 79.120 128.572,78.573 128.800,78.375 128.800 C 78.257 128.800,77.877 128.929,77.530 129.088 C 72.412 131.423,70.128 130.473,70.106 126.000 C 70.096 123.835,70.555 123.320,73.300 122.422 C 75.042 121.851,76.213 121.422,76.930 121.091 C 77.277 120.931,77.627 120.800,77.708 120.800 C 77.952 120.800,86.294 116.755,87.200 116.198 C 87.548 115.984,90.912 114.068,91.858 113.545 C 92.211 113.350,92.770 113.015,93.100 112.801 C 93.430 112.587,94.015 112.226,94.400 112.000 C 94.785 111.774,95.370 111.414,95.700 111.200 C 96.030 110.987,96.563 110.664,96.885 110.483 C 97.207 110.301,97.904 109.849,98.433 109.477 C 98.963 109.104,99.445 108.800,99.506 108.800 C 99.567 108.800,99.860 108.632,100.158 108.426 C 101.119 107.764,104.280 105.703,104.493 105.600 C 104.607 105.545,105.353 105.072,106.150 104.550 C 107.634 103.578,109.574 102.336,112.500 100.484 C 113.351 99.946,113.586 99.805,115.232 98.840 C 116.730 97.964,117.361 97.586,118.600 96.827 C 118.985 96.591,119.570 96.257,119.900 96.084 C 120.230 95.911,120.927 95.528,121.448 95.234 C 123.721 93.953,130.035 90.882,131.560 90.317 C 131.967 90.166,132.750 89.861,133.300 89.640 C 135.716 88.668,139.232 87.502,141.000 87.086 C 143.457 86.509,144.178 86.350,145.900 86.001 C 147.565 85.664,148.541 85.532,153.500 84.974 C 154.593 84.851,160.252 84.797,167.900 84.836 L 180.500 84.900 181.342 84.450 C 181.805 84.203,182.345 83.997,182.542 83.993 C 182.739 83.989,183.260 83.813,183.700 83.600 C 184.140 83.387,184.680 83.210,184.900 83.206 C 185.120 83.201,185.564 83.060,185.887 82.891 C 186.210 82.723,186.795 82.504,187.187 82.404 C 187.579 82.304,188.665 81.943,189.600 81.602 C 190.535 81.260,191.588 80.892,191.940 80.784 C 192.292 80.676,192.832 80.455,193.140 80.295 C 193.448 80.134,193.780 80.002,193.878 80.001 C 194.050 80.000,194.918 79.623,196.800 78.730 C 203.641 75.485,209.566 69.744,211.798 64.200 C 212.190 63.228,212.340 63.100,213.064 63.122 C 213.526 63.136,214.007 63.338,214.438 63.698 C 217.771 66.491,216.161 70.322,209.300 75.930 C 207.444 77.447,202.476 80.776,200.700 81.693 C 200.370 81.863,199.740 82.217,199.300 82.480 C 198.860 82.742,197.555 83.432,196.400 84.013 C 193.987 85.226,194.094 85.160,194.262 85.329 C 195.033 86.100,213.597 86.760,219.403 86.223 C 224.261 85.773,226.165 85.562,228.000 85.269 C 229.045 85.102,230.565 84.887,231.377 84.790 C 232.189 84.693,233.449 84.482,234.177 84.321 C 234.905 84.160,236.040 83.927,236.700 83.804 C 239.608 83.260,240.836 82.998,241.737 82.731 C 242.267 82.573,243.150 82.352,243.700 82.238 C 244.736 82.024,245.521 81.823,247.900 81.161 C 250.452 80.452,252.089 79.974,253.000 79.671 C 253.495 79.507,254.260 79.286,254.700 79.179 C 255.140 79.073,255.784 78.854,256.130 78.693 C 256.477 78.532,256.927 78.397,257.130 78.393 C 257.334 78.389,257.860 78.213,258.300 78.000 C 258.740 77.787,259.266 77.611,259.470 77.607 C 259.673 77.603,260.123 77.467,260.470 77.303 C 260.816 77.140,261.505 76.878,262.000 76.720 C 262.495 76.562,263.530 76.196,264.300 75.906 C 265.070 75.616,265.988 75.290,266.340 75.183 C 266.692 75.075,267.232 74.855,267.540 74.695 C 267.848 74.534,268.210 74.402,268.345 74.401 C 268.479 74.401,268.974 74.230,269.445 74.021 C 270.253 73.664,271.183 73.281,273.500 72.353 C 274.050 72.132,274.870 71.783,275.322 71.576 C 275.774 71.369,276.251 71.200,276.382 71.200 C 276.513 71.200,276.954 71.026,277.360 70.814 C 277.767 70.602,278.685 70.190,279.400 69.899 C 280.115 69.608,281.015 69.229,281.400 69.058 C 281.785 68.886,282.460 68.590,282.900 68.400 C 283.340 68.210,284.127 67.862,284.650 67.627 C 285.173 67.392,285.983 67.029,286.450 66.820 C 286.918 66.612,287.795 66.216,288.400 65.940 C 289.005 65.665,290.040 65.197,290.700 64.899 C 293.748 63.525,298.358 61.363,303.600 58.850 C 304.975 58.191,307.270 57.098,308.700 56.421 C 310.130 55.744,311.525 55.065,311.800 54.913 C 312.412 54.575,312.442 54.570,312.734 54.755 M325.200 56.533 C 328.187 57.362,332.800 60.750,332.800 62.114 C 332.800 62.199,332.917 62.411,333.059 62.584 C 334.306 64.102,334.289 66.034,333.025 66.326 C 332.736 66.393,332.299 66.573,332.053 66.727 C 331.478 67.085,328.794 67.600,327.500 67.600 C 322.969 67.600,318.275 64.759,316.431 60.900 C 316.063 60.130,315.679 59.341,315.578 59.148 C 314.531 57.145,321.037 55.377,325.200 56.533 M118.557 58.139 C 119.825 58.930,122.996 61.854,122.999 62.235 C 122.999 62.309,123.218 62.629,123.485 62.945 C 123.751 63.262,124.201 63.957,124.484 64.490 C 124.768 65.022,125.072 65.557,125.162 65.679 C 126.288 67.209,127.303 72.181,127.126 75.300 C 126.927 78.782,124.986 84.487,123.620 85.600 C 123.553 85.655,123.233 86.060,122.910 86.500 C 122.145 87.541,120.199 89.400,119.874 89.400 C 118.105 89.400,113.277 83.700,111.887 79.969 C 110.373 75.905,110.290 69.172,111.721 66.430 C 111.873 66.139,111.998 65.802,111.999 65.682 C 112.000 65.441,113.029 63.398,113.562 62.580 C 114.677 60.864,114.699 60.838,116.391 59.115 C 117.826 57.653,117.799 57.665,118.557 58.139 M232.035 65.396 C 235.967 66.218,238.253 67.746,237.662 69.160 C 236.890 71.009,234.829 73.073,232.200 74.632 C 229.984 75.947,225.783 76.306,223.020 75.418 C 221.625 74.970,221.187 74.756,219.349 73.622 C 218.392 73.033,218.203 72.364,218.774 71.592 C 219.008 71.275,219.200 70.921,219.200 70.805 C 219.200 70.240,222.560 67.273,224.047 66.526 C 226.774 65.155,229.222 64.809,232.035 65.396 M101.300 79.789 C 108.222 81.266,114.747 87.403,115.330 92.988 L 115.454 94.170 113.521 95.085 C 112.458 95.588,111.434 96.002,111.244 96.005 C 111.055 96.007,110.231 96.187,109.414 96.405 C 105.493 97.447,99.123 96.230,95.873 93.817 C 95.638 93.643,95.235 93.365,94.977 93.200 C 92.935 91.895,88.831 86.678,88.793 85.339 C 88.789 85.208,88.613 84.740,88.400 84.300 C 87.460 82.353,87.786 81.947,91.500 80.447 C 94.061 79.413,98.225 79.133,101.300 79.789 M265.844 88.672 C 266.253 88.852,266.928 89.001,267.344 89.001 C 267.762 89.002,268.368 89.180,268.700 89.400 C 269.030 89.619,269.490 89.798,269.723 89.799 C 269.956 89.799,270.375 89.980,270.655 90.200 C 270.934 90.420,271.270 90.600,271.400 90.600 C 271.530 90.600,271.866 90.780,272.145 91.000 C 272.425 91.220,272.774 91.400,272.920 91.400 C 273.066 91.400,273.282 91.580,273.400 91.800 C 273.518 92.020,273.723 92.200,273.857 92.200 C 274.127 92.200,277.400 95.470,277.400 95.740 C 277.400 95.834,277.580 96.065,277.800 96.254 C 278.020 96.442,278.200 96.718,278.200 96.867 C 278.200 97.016,278.380 97.301,278.600 97.500 C 278.820 97.699,279.000 97.991,279.000 98.149 C 279.000 98.308,279.180 98.666,279.400 98.945 C 279.620 99.225,279.800 99.622,279.800 99.828 C 279.800 100.033,279.980 100.537,280.200 100.948 C 280.420 101.358,280.600 102.017,280.600 102.411 C 280.600 102.805,280.747 103.616,280.928 104.214 C 281.392 105.752,281.362 108.464,280.870 109.501 L 280.490 110.300 277.395 110.239 C 274.800 110.188,274.178 110.116,273.544 109.789 C 273.128 109.575,272.588 109.399,272.344 109.399 C 272.100 109.398,271.630 109.219,271.300 109.000 C 270.970 108.781,270.556 108.602,270.381 108.601 C 270.206 108.601,269.899 108.420,269.700 108.200 C 269.501 107.980,269.225 107.800,269.087 107.800 C 268.695 107.800,266.830 106.279,265.400 104.793 C 263.541 102.861,263.345 102.604,262.708 101.264 C 262.542 100.914,262.323 100.576,262.221 100.513 C 261.962 100.353,261.022 101.521,260.892 102.165 C 260.832 102.459,260.610 103.060,260.399 103.500 C 260.187 103.940,259.917 104.525,259.798 104.800 C 258.351 108.159,253.639 112.517,250.286 113.599 C 249.854 113.738,249.406 113.926,249.292 114.016 C 249.078 114.184,246.201 114.842,245.516 114.879 C 244.833 114.916,244.031 113.038,243.398 109.923 C 243.154 108.717,243.153 104.983,243.398 103.900 C 243.894 101.705,244.250 100.496,244.512 100.123 C 244.670 99.896,244.800 99.592,244.800 99.446 C 244.800 99.061,246.467 96.280,247.463 95.002 C 248.483 93.695,251.112 91.439,252.388 90.776 C 252.890 90.516,253.435 90.206,253.600 90.089 C 254.022 89.787,256.473 88.903,257.900 88.537 C 259.561 88.111,264.772 88.200,265.844 88.672 M170.717 94.109 C 171.856 94.389,173.038 94.748,173.344 94.908 C 173.650 95.067,174.004 95.198,174.130 95.199 C 175.767 95.208,181.881 100.451,183.190 102.969 C 183.771 104.086,181.538 106.487,178.500 108.011 C 178.060 108.232,177.565 108.489,177.400 108.583 C 174.178 110.423,167.246 111.158,163.824 110.023 C 163.122 109.790,162.400 109.600,162.218 109.600 C 162.037 109.600,161.711 109.477,161.495 109.327 C 161.278 109.177,160.875 108.985,160.600 108.902 C 158.025 108.118,153.483 104.197,151.838 101.339 C 151.260 100.335,151.239 100.408,152.493 99.134 C 156.946 94.608,164.392 92.555,170.717 94.109 M165.800 113.384 C 171.193 115.207,174.960 119.922,175.072 124.989 L 175.100 126.278 174.000 126.627 C 171.317 127.478,166.880 126.661,164.155 124.814 C 162.557 123.731,160.000 120.983,160.000 120.348 C 160.000 120.229,159.874 119.989,159.720 119.816 C 159.566 119.642,159.346 119.185,159.232 118.800 C 159.118 118.415,158.888 117.740,158.721 117.300 C 158.305 116.202,158.298 113.734,158.710 113.391 C 159.573 112.675,163.690 112.671,165.800 113.384 M144.900 113.791 C 147.873 114.435,148.606 114.627,149.120 114.895 C 149.439 115.062,149.810 115.198,149.945 115.199 C 150.156 115.200,150.841 115.544,152.900 116.684 C 155.386 118.060,159.262 122.079,160.209 124.261 C 160.313 124.502,160.484 124.835,160.587 125.000 C 163.160 129.111,163.763 139.636,161.509 141.112 C 161.051 141.413,156.040 140.840,155.528 140.429 C 155.402 140.328,154.989 140.179,154.608 140.098 C 153.980 139.964,152.965 139.533,151.900 138.948 C 151.680 138.828,151.320 138.632,151.100 138.514 C 147.817 136.750,144.448 133.122,142.731 129.500 C 142.418 128.840,142.036 128.061,141.881 127.769 C 141.726 127.477,141.600 127.106,141.600 126.945 C 141.600 126.784,141.408 126.078,141.173 125.376 C 140.294 122.748,140.638 115.682,141.738 113.750 C 141.853 113.548,143.904 113.575,144.900 113.791 M44.394 139.878 C 46.464 140.357,46.400 140.257,46.400 143.031 C 46.400 145.870,46.494 145.782,43.995 145.277 C 40.513 144.573,37.372 145.790,36.927 148.014 C 36.722 149.042,36.782 153.392,37.007 153.813 C 37.200 154.174,37.460 154.200,40.867 154.200 C 45.271 154.200,44.967 153.981,44.846 157.061 C 44.722 160.220,45.059 159.981,40.629 160.046 L 36.900 160.100 36.849 172.981 C 36.812 182.091,36.732 185.941,36.574 186.131 C 36.404 186.336,35.578 186.400,33.100 186.400 C 30.622 186.400,29.796 186.336,29.626 186.131 C 29.468 185.941,29.388 182.091,29.351 172.981 L 29.300 160.100 27.311 160.042 C 24.727 159.967,24.800 160.050,24.800 157.192 C 24.800 154.046,24.702 154.200,26.708 154.200 C 29.344 154.200,29.399 154.157,29.407 152.055 C 29.418 149.383,29.726 146.569,30.080 145.900 C 30.255 145.570,30.398 145.174,30.399 145.021 C 30.402 144.182,32.528 141.756,34.161 140.725 C 36.208 139.432,40.818 139.051,44.394 139.878 M146.960 140.640 C 147.139 140.819,147.200 142.895,147.200 148.746 C 147.200 157.397,147.175 157.237,148.386 156.416 C 148.724 156.187,149.249 155.833,149.554 155.628 C 149.858 155.424,150.331 155.188,150.604 155.104 C 150.877 155.020,151.190 154.883,151.300 154.800 C 153.052 153.478,160.693 153.036,163.690 154.083 C 167.231 155.321,168.881 157.055,169.984 160.700 C 170.398 162.069,170.406 162.369,170.354 174.200 L 170.300 186.300 166.800 186.300 L 163.300 186.300 163.200 174.600 L 163.100 162.900 162.571 161.900 C 161.173 159.258,156.802 158.302,152.518 159.701 C 150.986 160.201,150.779 160.304,148.900 161.513 C 147.038 162.710,147.210 161.426,147.152 174.614 L 147.100 186.300 143.600 186.300 L 140.100 186.300 140.049 163.622 C 140.012 147.029,140.059 140.870,140.224 140.672 C 140.527 140.306,146.597 140.277,146.960 140.640 M186.200 148.140 C 186.305 155.963,186.365 156.442,187.145 155.761 C 187.564 155.396,189.412 154.610,191.100 154.078 C 193.062 153.460,199.563 153.524,201.569 154.181 C 204.684 155.201,206.215 156.311,208.356 159.100 C 211.362 163.014,211.735 174.289,209.042 179.799 C 208.116 181.695,206.000 184.143,204.656 184.875 C 198.994 187.961,191.402 187.667,187.041 184.195 C 186.492 183.758,185.997 183.400,185.941 183.400 C 185.751 183.400,185.400 184.656,185.400 185.335 C 185.400 185.875,185.298 186.049,184.887 186.205 C 184.130 186.493,179.536 186.456,179.240 186.160 C 178.919 185.839,178.889 141.580,179.210 140.982 C 179.407 140.614,179.617 140.594,182.760 140.645 L 186.100 140.700 186.200 148.140 M355.360 140.840 C 355.538 141.018,355.601 142.974,355.603 148.390 C 355.606 156.876,355.694 157.486,356.779 156.526 C 357.376 155.997,360.213 154.619,361.360 154.300 C 363.816 153.617,364.276 153.569,367.651 153.641 C 372.291 153.740,373.925 154.306,376.230 156.611 C 378.741 159.122,379.000 160.833,379.000 174.909 L 379.000 186.153 378.550 186.274 C 377.677 186.508,372.294 186.414,372.040 186.160 C 371.859 185.979,371.800 183.227,371.798 175.010 C 371.797 161.476,371.743 161.191,368.932 159.760 C 367.286 158.923,362.800 158.811,361.161 159.567 C 360.645 159.805,360.132 160.000,360.022 160.000 C 359.530 160.000,357.204 161.428,356.200 162.346 L 355.700 162.804 355.642 174.480 L 355.585 186.157 355.142 186.276 C 354.384 186.479,349.195 186.411,348.787 186.193 C 348.211 185.885,348.174 141.151,348.750 140.816 C 349.264 140.517,355.058 140.538,355.360 140.840 M89.300 153.586 C 94.009 154.043,97.762 156.437,99.571 160.136 C 99.938 160.886,100.328 161.670,100.438 161.877 C 101.159 163.239,101.509 172.127,100.869 172.834 C 100.556 173.180,99.943 173.200,89.600 173.200 C 76.905 173.200,77.831 173.043,78.312 175.119 C 79.642 180.872,87.645 183.099,97.130 180.356 C 99.209 179.754,99.201 179.745,99.197 182.544 C 99.195 183.840,99.128 185.004,99.047 185.131 C 98.597 185.838,93.625 186.902,89.800 187.109 C 86.819 187.271,82.342 186.687,80.495 185.896 C 73.471 182.887,71.100 178.902,71.100 170.100 C 71.100 158.016,77.271 152.417,89.300 153.586 M126.900 154.033 C 127.890 154.259,128.887 154.476,129.116 154.517 C 129.795 154.637,130.000 155.445,130.000 158.002 C 130.000 160.921,129.870 161.082,128.031 160.439 C 123.758 158.945,116.727 159.207,115.250 160.915 C 114.040 162.315,114.571 164.216,116.428 165.128 C 118.249 166.023,119.155 166.400,119.482 166.400 C 119.668 166.400,120.076 166.532,120.389 166.694 C 120.702 166.856,121.305 167.077,121.729 167.184 C 122.545 167.392,124.627 168.095,125.300 168.390 C 130.036 170.467,131.455 171.831,132.222 175.044 C 132.699 177.039,132.698 178.152,132.220 180.023 C 131.054 184.581,127.351 186.768,120.200 187.124 C 117.070 187.280,111.990 186.707,109.500 185.916 L 108.100 185.471 108.044 182.601 C 107.979 179.248,107.997 179.210,109.444 179.659 C 115.091 181.416,122.751 181.421,124.502 179.670 C 125.935 178.236,124.433 174.400,122.438 174.400 C 122.313 174.400,121.826 174.231,121.355 174.025 C 120.354 173.586,119.448 173.259,118.200 172.886 C 117.404 172.647,116.048 172.156,113.800 171.292 C 109.112 169.490,107.314 167.111,107.305 162.700 C 107.296 157.996,109.242 155.528,114.100 154.083 C 116.698 153.309,123.605 153.283,126.900 154.033 M68.156 156.184 C 68.226 159.259,68.543 158.910,64.800 159.887 C 64.085 160.074,63.216 160.356,62.870 160.513 C 62.523 160.671,62.098 160.800,61.925 160.800 C 61.383 160.800,57.292 162.695,57.059 163.054 C 56.972 163.189,56.855 168.475,56.800 174.800 L 56.700 186.300 53.326 186.355 C 51.008 186.393,49.866 186.338,49.676 186.180 C 49.286 185.857,49.262 155.065,49.651 154.533 C 49.873 154.230,50.256 154.195,52.880 154.244 C 56.245 154.307,56.054 154.209,56.410 156.063 C 56.644 157.281,57.001 157.640,57.577 157.239 C 58.700 156.460,61.950 155.053,64.200 154.374 C 64.915 154.158,65.725 153.901,66.000 153.803 C 66.275 153.705,66.860 153.642,67.300 153.663 L 68.100 153.700 68.156 156.184 M236.760 153.840 C 237.091 154.171,237.091 158.629,236.760 158.960 C 236.628 159.092,236.324 159.200,236.085 159.200 C 235.846 159.200,235.256 159.340,234.775 159.512 C 234.294 159.684,233.540 159.902,233.100 159.997 C 230.804 160.493,225.938 162.551,225.720 163.119 C 225.654 163.291,225.600 168.499,225.600 174.692 C 225.600 184.033,225.553 185.990,225.323 186.181 C 225.134 186.338,224.018 186.393,221.773 186.355 L 218.500 186.300 218.445 170.700 C 218.415 162.120,218.439 154.898,218.499 154.650 C 218.606 154.208,218.662 154.200,221.608 154.200 C 225.030 154.200,224.748 154.040,225.192 156.233 C 225.437 157.443,225.829 157.807,226.379 157.333 C 227.155 156.663,230.895 155.058,233.300 154.361 C 234.070 154.137,234.925 153.883,235.200 153.795 C 235.946 153.555,236.491 153.571,236.760 153.840 M257.800 153.783 C 262.182 154.871,264.082 155.954,265.719 158.300 C 267.434 160.758,267.592 162.180,267.596 175.243 C 267.601 187.820,268.013 186.400,264.353 186.400 C 261.843 186.400,261.401 186.282,261.399 185.610 C 261.392 183.822,260.728 183.368,259.429 184.262 C 258.555 184.863,257.806 185.257,256.100 186.013 C 251.264 188.158,242.831 186.855,239.940 183.516 C 237.496 180.693,236.946 174.514,238.931 172.184 C 239.079 172.011,239.200 171.783,239.200 171.678 C 239.200 171.574,239.763 170.940,240.450 170.270 C 241.951 168.807,243.281 168.085,245.800 167.365 C 246.185 167.255,249.630 167.117,253.456 167.058 C 261.527 166.935,260.928 167.127,260.745 164.713 C 260.543 162.033,259.632 160.702,257.364 159.773 C 256.088 159.250,249.562 158.991,247.597 159.385 C 246.994 159.506,245.761 159.734,244.857 159.892 C 243.953 160.049,243.037 160.273,242.820 160.389 C 241.669 161.005,241.583 160.830,241.644 157.986 L 241.700 155.372 242.800 154.986 C 243.771 154.645,244.567 154.461,247.900 153.807 C 249.008 153.590,256.943 153.571,257.800 153.783 M299.699 154.106 C 303.174 155.240,304.739 156.805,305.943 160.350 L 306.470 161.900 306.556 173.855 C 306.622 183.100,306.586 185.876,306.396 186.105 C 306.143 186.409,300.874 186.548,299.862 186.277 L 299.423 186.159 299.362 174.530 L 299.300 162.900 298.827 162.000 C 296.709 157.965,288.720 157.976,284.126 162.019 L 283.203 162.831 283.152 174.566 L 283.100 186.300 279.827 186.355 C 277.582 186.393,276.466 186.338,276.277 186.181 C 275.896 185.865,275.860 154.820,276.240 154.440 C 276.404 154.276,277.377 154.200,279.316 154.200 C 282.545 154.200,282.506 154.182,282.875 155.843 C 283.171 157.179,283.399 157.219,285.040 156.222 C 289.269 153.653,295.538 152.748,299.699 154.106 M336.000 153.783 C 338.051 154.292,339.148 154.636,339.931 155.015 L 340.800 155.436 340.800 157.906 C 340.800 160.606,340.742 160.742,339.764 160.320 C 335.693 158.565,328.835 158.744,325.356 160.697 C 319.326 164.083,319.608 177.437,325.770 180.219 C 329.409 181.861,335.464 181.887,339.545 180.277 C 340.843 179.764,341.001 180.003,340.997 182.474 C 340.994 184.802,340.774 185.427,339.898 185.607 C 339.569 185.675,339.120 185.825,338.900 185.940 C 336.606 187.139,325.020 187.190,323.500 186.008 C 323.390 185.922,322.947 185.738,322.516 185.599 C 319.307 184.565,316.197 181.247,314.830 177.400 C 313.508 173.680,313.484 166.280,314.784 163.300 C 315.516 161.620,316.128 160.420,316.483 159.970 C 316.712 159.678,317.122 159.149,317.393 158.794 C 318.097 157.872,320.690 155.863,321.800 155.379 C 322.075 155.259,322.573 155.031,322.906 154.873 C 323.454 154.612,324.660 154.265,326.600 153.810 C 327.548 153.588,335.125 153.566,336.000 153.783 M84.400 159.197 C 83.575 159.285,82.630 159.501,82.300 159.677 C 81.970 159.853,81.610 159.999,81.500 160.000 C 80.269 160.016,78.640 162.742,78.106 165.683 C 77.606 168.431,76.852 168.200,86.324 168.200 C 95.856 168.200,95.023 168.532,94.580 164.912 C 94.011 160.274,90.870 158.511,84.400 159.197 M192.000 159.196 C 189.757 159.478,186.531 161.102,186.291 162.070 C 186.232 162.307,186.210 166.033,186.242 170.351 L 186.300 178.202 187.200 179.001 C 191.352 182.690,199.180 182.341,201.724 178.353 C 203.596 175.421,204.212 167.274,202.803 164.100 C 202.607 163.660,202.384 163.091,202.306 162.837 C 201.519 160.259,196.802 158.593,192.000 159.196 M247.000 172.524 C 244.289 173.777,243.485 178.365,245.632 180.328 C 248.482 182.935,256.155 181.998,259.630 178.618 L 260.812 177.469 260.756 174.784 L 260.700 172.100 254.400 172.058 L 248.100 172.015 247.000 172.524 " stroke="none" fill="#ffffff" fill-rule="evenodd"></path><path id="path2" d="M310.917 55.492 C 310.156 55.865,309.391 56.220,309.217 56.280 C 309.042 56.339,308.765 56.476,308.600 56.582 C 308.302 56.775,305.354 58.182,304.400 58.587 C 304.125 58.704,303.765 58.879,303.600 58.977 C 303.175 59.230,296.630 62.316,295.000 63.033 C 294.505 63.250,293.965 63.512,293.800 63.615 C 293.635 63.717,293.275 63.895,293.000 64.011 C 292.725 64.126,292.118 64.396,291.650 64.610 C 290.848 64.978,290.327 65.211,288.050 66.222 C 287.528 66.453,286.463 66.948,285.685 67.322 C 284.907 67.695,284.204 68.000,284.123 68.000 C 284.042 68.000,283.463 68.235,282.838 68.522 C 280.939 69.394,279.245 70.134,277.600 70.812 C 276.995 71.061,276.140 71.421,275.700 71.612 C 275.260 71.804,274.564 72.066,274.153 72.195 C 273.742 72.324,273.354 72.513,273.291 72.615 C 273.228 72.717,273.023 72.800,272.835 72.800 C 272.648 72.800,272.158 72.980,271.748 73.200 C 271.337 73.420,270.898 73.600,270.773 73.600 C 270.647 73.600,270.174 73.769,269.722 73.975 C 269.270 74.182,268.381 74.538,267.747 74.768 C 267.113 74.997,266.099 75.365,265.494 75.585 C 264.889 75.805,263.899 76.165,263.294 76.385 C 262.689 76.605,261.723 76.959,261.147 77.171 C 259.962 77.608,258.524 78.087,257.200 78.484 C 256.705 78.633,256.030 78.851,255.700 78.969 C 254.822 79.283,253.243 79.780,252.100 80.101 C 251.550 80.256,250.470 80.562,249.700 80.782 C 248.930 81.002,247.895 81.287,247.400 81.416 C 246.905 81.544,245.915 81.809,245.200 82.004 C 243.041 82.594,241.161 83.036,240.000 83.229 C 239.395 83.329,238.495 83.537,238.000 83.690 C 237.505 83.843,236.566 84.029,235.913 84.103 C 235.260 84.177,234.516 84.318,234.260 84.415 C 234.003 84.513,232.962 84.690,231.947 84.810 C 230.931 84.929,229.740 85.120,229.300 85.235 C 228.860 85.349,227.240 85.565,225.700 85.715 C 224.160 85.866,222.270 86.077,221.500 86.186 C 215.189 87.075,194.000 86.327,194.000 85.216 C 194.000 85.065,195.234 84.397,196.600 83.809 C 196.875 83.690,197.460 83.387,197.900 83.134 C 198.340 82.882,199.302 82.354,200.037 81.960 C 200.773 81.567,201.790 80.965,202.297 80.623 C 202.805 80.280,203.295 80.000,203.386 80.000 C 203.477 80.000,203.662 79.867,203.797 79.704 C 203.932 79.541,204.316 79.272,204.651 79.105 C 205.310 78.776,206.179 78.156,208.564 76.314 C 215.955 70.606,217.831 66.464,214.254 63.750 C 213.000 62.799,212.533 62.963,211.694 64.650 C 208.566 70.941,204.297 75.107,197.600 78.404 C 196.445 78.973,195.359 79.510,195.186 79.598 C 194.266 80.067,187.355 82.574,185.000 83.293 C 183.458 83.764,182.113 84.223,181.798 84.387 C 180.246 85.193,179.526 85.230,169.731 85.011 C 161.139 84.819,152.929 84.940,152.000 85.274 C 151.835 85.333,150.665 85.479,149.400 85.599 C 148.135 85.719,146.770 85.904,146.366 86.012 C 145.962 86.119,144.972 86.333,144.166 86.487 C 143.360 86.642,142.295 86.876,141.800 87.009 C 139.525 87.618,138.021 88.069,137.096 88.419 C 136.544 88.629,135.959 88.801,135.796 88.801 C 135.633 88.802,135.230 88.946,134.900 89.122 C 134.570 89.297,133.876 89.569,133.359 89.725 C 132.841 89.882,132.363 90.098,132.297 90.205 C 132.231 90.312,132.041 90.400,131.876 90.400 C 131.710 90.400,131.063 90.635,130.438 90.922 C 129.812 91.210,128.895 91.621,128.400 91.836 C 127.905 92.052,127.365 92.312,127.200 92.415 C 127.035 92.517,126.675 92.691,126.400 92.800 C 126.125 92.910,125.765 93.090,125.600 93.200 C 125.435 93.311,125.075 93.493,124.800 93.606 C 123.696 94.060,121.862 95.090,115.100 99.054 C 114.880 99.183,114.180 99.629,113.544 100.044 C 112.908 100.460,112.333 100.800,112.266 100.800 C 112.199 100.800,111.370 101.307,110.422 101.927 C 109.475 102.547,108.385 103.252,108.000 103.495 C 107.615 103.738,106.400 104.522,105.300 105.238 C 104.200 105.955,102.940 106.753,102.500 107.014 C 102.060 107.274,101.610 107.559,101.500 107.646 C 101.033 108.016,98.475 109.658,98.200 109.764 C 98.035 109.828,97.810 109.955,97.700 110.047 C 97.434 110.270,95.041 111.809,94.361 112.194 C 94.065 112.362,92.908 113.040,91.791 113.700 C 87.312 116.346,83.717 118.255,80.500 119.697 C 79.840 119.993,79.030 120.359,78.700 120.510 C 77.427 121.094,76.140 121.600,75.925 121.601 C 75.801 121.602,75.445 121.735,75.133 121.898 C 74.822 122.061,74.223 122.286,73.802 122.399 C 71.068 123.136,70.200 123.976,70.200 125.884 C 70.200 129.308,71.853 131.001,74.300 130.082 C 74.740 129.917,75.505 129.659,76.000 129.509 C 77.447 129.072,78.661 128.617,79.231 128.297 C 79.523 128.134,79.866 128.000,79.993 128.000 C 80.197 128.000,80.820 127.741,83.100 126.707 C 84.069 126.267,89.472 123.602,89.800 123.402 C 89.965 123.301,91.568 122.382,93.363 121.359 C 95.157 120.337,96.930 119.320,97.301 119.100 C 99.836 117.599,100.419 117.238,101.400 116.560 C 102.005 116.142,102.571 115.800,102.658 115.800 C 102.746 115.800,102.926 115.705,103.058 115.590 C 103.485 115.219,107.244 112.800,107.393 112.800 C 107.473 112.800,107.701 112.620,107.900 112.400 C 108.099 112.180,108.341 112.000,108.437 112.000 C 108.534 112.000,109.218 111.606,109.956 111.125 C 111.529 110.100,112.388 109.879,115.900 109.592 C 117.330 109.476,118.995 109.259,119.600 109.111 C 120.205 108.963,121.285 108.789,122.000 108.725 C 122.715 108.661,124.065 108.474,125.000 108.309 C 131.322 107.196,139.439 107.277,142.700 108.486 C 143.140 108.649,143.633 108.786,143.796 108.791 C 145.158 108.832,152.927 112.988,153.623 114.048 C 153.926 114.511,154.693 114.068,155.264 113.100 C 156.356 111.251,156.250 109.497,154.970 108.217 C 154.028 107.275,153.739 107.098,151.500 106.092 C 150.598 105.686,148.704 105.203,146.800 104.893 C 145.865 104.741,144.724 104.523,144.265 104.409 C 142.269 103.914,132.515 103.583,127.142 103.828 C 120.973 104.109,121.106 104.155,122.639 102.260 C 125.151 99.155,128.440 96.536,131.800 94.965 C 133.907 93.980,136.989 92.800,137.453 92.800 C 137.643 92.800,138.316 92.626,138.949 92.414 C 139.582 92.202,140.595 91.966,141.200 91.889 C 141.805 91.813,142.525 91.665,142.800 91.561 C 143.075 91.456,144.551 91.239,146.081 91.078 C 147.610 90.917,148.944 90.735,149.044 90.673 C 149.857 90.170,175.237 90.267,181.000 90.795 C 188.350 91.468,222.316 91.468,226.700 90.795 C 227.360 90.693,229.340 90.513,231.100 90.394 C 232.860 90.274,234.697 90.088,235.183 89.980 C 235.669 89.872,236.910 89.704,237.941 89.606 C 238.972 89.509,240.464 89.279,241.258 89.097 C 244.520 88.346,247.307 87.601,249.600 86.866 C 250.095 86.707,250.847 86.490,251.271 86.383 C 251.695 86.276,252.298 86.056,252.611 85.894 C 252.924 85.732,253.329 85.600,253.510 85.600 C 253.691 85.600,254.123 85.467,254.470 85.303 C 254.816 85.140,255.505 84.876,256.000 84.716 C 257.601 84.198,259.133 83.644,259.521 83.443 C 259.975 83.208,261.900 82.488,262.600 82.291 C 262.875 82.214,263.191 82.079,263.302 81.991 C 263.412 81.903,263.862 81.701,264.302 81.541 C 265.816 80.991,268.701 79.795,269.231 79.498 C 269.523 79.334,269.866 79.200,269.993 79.200 C 270.121 79.200,270.737 78.965,271.362 78.678 C 271.988 78.390,272.882 77.985,273.350 77.778 C 273.818 77.570,274.605 77.220,275.100 77.000 C 275.595 76.780,276.428 76.410,276.950 76.178 C 277.473 75.947,278.530 75.460,279.300 75.097 C 280.070 74.734,281.240 74.194,281.900 73.897 C 284.682 72.645,289.540 70.252,300.928 64.526 C 303.363 63.302,306.243 61.866,307.328 61.335 C 311.721 59.187,312.994 57.942,312.999 55.790 C 313.001 54.673,312.679 54.626,310.917 55.492 M36.800 139.889 C 31.770 141.224,29.629 144.461,29.609 150.763 C 29.597 154.297,29.665 154.200,27.200 154.200 C 25.441 154.200,25.190 154.244,25.007 154.587 C 24.781 155.009,24.724 158.172,24.925 159.175 L 25.050 159.800 26.938 159.800 C 29.931 159.800,29.600 158.138,29.600 173.186 C 29.600 184.830,29.632 186.170,29.916 186.279 C 30.333 186.438,35.173 186.435,35.975 186.275 L 36.600 186.150 36.600 173.215 C 36.600 163.421,36.658 160.222,36.840 160.040 C 37.009 159.871,38.157 159.800,40.728 159.800 C 45.018 159.800,44.670 160.038,44.769 157.047 C 44.870 154.004,45.151 154.200,40.671 154.200 L 36.990 154.200 36.774 153.650 C 36.394 152.686,36.684 147.934,37.171 147.147 C 38.353 145.234,41.440 144.477,44.800 145.276 C 46.412 145.659,46.400 145.675,46.400 143.228 C 46.400 140.632,46.228 140.285,44.847 140.090 C 44.326 140.016,43.360 139.832,42.700 139.681 C 40.974 139.286,38.783 139.363,36.800 139.889 M140.240 140.840 C 139.824 141.256,139.899 186.119,140.316 186.279 C 140.935 186.516,146.707 186.413,146.960 186.160 C 147.141 185.979,147.200 183.073,147.200 174.309 L 147.200 162.699 147.750 162.194 C 151.490 158.763,159.319 157.891,161.864 160.622 C 162.100 160.876,162.518 161.538,162.791 162.092 L 163.289 163.100 163.359 174.630 L 163.429 186.161 163.864 186.278 C 164.443 186.433,169.680 186.434,170.084 186.279 C 170.444 186.140,170.550 163.986,170.199 162.200 C 169.878 160.565,169.364 158.905,169.080 158.584 C 168.926 158.411,168.800 158.184,168.800 158.081 C 168.800 157.244,165.962 154.976,164.100 154.323 C 161.641 153.462,155.854 153.336,153.700 154.097 C 150.790 155.126,149.797 155.562,148.762 156.265 C 147.119 157.382,147.200 157.753,147.200 149.075 C 147.200 144.149,147.125 141.234,146.993 140.987 C 146.740 140.515,140.696 140.384,140.240 140.840 M66.500 153.808 C 66.170 153.904,65.360 154.124,64.700 154.298 C 64.040 154.472,63.261 154.746,62.969 154.907 C 62.677 155.068,62.334 155.200,62.207 155.200 C 61.876 155.200,58.093 156.960,57.367 157.451 C 56.836 157.811,56.466 157.331,56.226 155.970 C 56.108 155.302,55.908 154.631,55.782 154.478 C 55.475 154.108,50.205 154.075,49.840 154.440 C 49.425 154.855,49.500 186.119,49.916 186.279 C 50.535 186.516,56.307 186.413,56.560 186.160 C 56.741 185.979,56.800 183.112,56.800 174.484 C 56.800 164.979,56.847 163.010,57.077 162.819 C 57.437 162.520,59.247 161.602,59.478 161.601 C 59.576 161.600,60.026 161.427,60.478 161.216 C 61.422 160.776,62.940 160.262,64.100 159.990 C 64.540 159.887,65.350 159.669,65.900 159.507 C 66.450 159.344,67.150 159.161,67.456 159.100 L 68.012 158.989 67.956 156.345 C 67.894 153.414,67.889 153.405,66.500 153.808 M82.700 153.800 C 76.302 155.171,72.927 158.627,71.374 165.400 C 71.104 166.575,71.103 173.640,71.372 174.800 C 72.719 180.612,75.459 183.921,80.400 185.704 C 83.792 186.928,89.241 187.368,92.732 186.700 C 93.595 186.535,94.531 186.400,94.814 186.400 C 95.788 186.400,98.861 185.292,99.022 184.883 C 99.234 184.342,99.230 180.557,99.017 180.221 C 98.869 179.986,98.621 180.010,97.470 180.368 C 94.060 181.429,89.195 181.894,86.600 181.407 C 86.105 181.314,85.122 181.127,84.415 180.992 C 81.126 180.360,78.998 178.391,78.197 175.237 C 78.076 174.763,77.931 174.253,77.873 174.103 C 77.459 173.024,77.712 173.000,89.560 173.000 C 97.818 173.000,100.579 172.941,100.760 172.760 C 101.062 172.458,101.089 166.599,100.799 164.295 C 100.362 160.824,98.519 157.800,95.658 155.859 C 94.788 155.268,92.941 154.400,92.555 154.400 C 92.387 154.400,91.900 154.248,91.474 154.062 C 90.595 153.679,84.164 153.487,82.700 153.800 M115.900 153.788 C 108.709 155.219,105.659 159.995,107.917 166.286 C 108.763 168.642,112.515 171.029,118.000 172.700 C 119.523 173.164,120.862 173.643,121.722 174.030 C 122.174 174.233,122.615 174.400,122.701 174.400 C 122.787 174.400,123.251 174.648,123.731 174.950 C 125.755 176.226,125.750 179.291,123.721 180.361 L 122.700 180.900 118.100 180.897 C 113.345 180.893,111.165 180.600,109.025 179.675 C 108.654 179.514,108.294 179.439,108.225 179.508 C 107.952 179.780,107.961 185.120,108.236 185.325 C 108.694 185.668,110.683 186.195,112.292 186.399 C 113.143 186.507,114.401 186.693,115.086 186.812 C 116.810 187.112,122.097 186.941,124.294 186.513 C 130.506 185.303,133.360 181.103,132.094 175.034 C 131.443 171.913,129.544 170.163,124.900 168.404 C 124.240 168.154,123.385 167.829,123.000 167.682 C 122.615 167.535,121.895 167.313,121.400 167.188 C 120.905 167.063,120.410 166.890,120.300 166.804 C 120.190 166.717,119.785 166.579,119.400 166.496 C 119.015 166.414,118.386 166.179,118.003 165.973 C 117.620 165.768,117.196 165.600,117.062 165.600 C 116.699 165.600,115.432 164.694,114.966 164.103 C 114.122 163.029,114.362 161.345,115.493 160.406 C 117.090 159.080,125.206 159.087,128.521 160.416 C 129.695 160.888,129.800 160.690,129.800 158.016 C 129.800 155.022,129.658 154.658,128.422 154.493 C 127.915 154.425,127.050 154.231,126.500 154.062 C 125.370 153.715,117.315 153.507,115.900 153.788 M91.300 159.674 C 93.893 161.038,94.800 162.816,94.800 166.530 C 94.800 168.519,95.343 168.400,86.300 168.400 C 77.653 168.400,77.800 168.422,77.800 167.117 C 77.800 163.795,79.419 160.812,81.800 159.744 C 83.910 158.798,89.556 158.756,91.300 159.674 " stroke="none" fill="#5c0606" fill-rule="evenodd"></path></g></svg>